<svg id="bt_view" xmlns="http://www.w3.org/2000/svg" xmlns:xlink="http://www.w3.org/1999/xlink" width="38" height="44" viewBox="0 0 38 44">
  <defs>
    <style>
      .cls-1 {
        fill: none;
      }

      .cls-2 {
        clip-path: url(#clip-path);
      }

      .cls-3 {
        fill: #cdd4d9;
      }

      .cls-4 {
        fill: #eaedef;
        stroke: #b1b7bb;
        stroke-width: 0.4px;
      }

      .cls-5 {
        fill: #0fa9cb;
      }

      .cls-6 {
        fill: #11819a;
      }

      .cls-7 {
        fill: #fff;
        opacity: 0.99;
      }
    </style>
    <clipPath id="clip-path">
      <rect id="사각형_3316" data-name="사각형 3316" class="cls-1" width="38" height="44" transform="translate(-1 -1)"/>
    </clipPath>
  </defs>
  <g id="그룹_12576" data-name="그룹 12576" class="cls-2" transform="translate(1 1)">
    <path id="패스_13091" data-name="패스 13091" class="cls-3" d="M29.629,32.579a3.55,3.55,0,0,1-3.54,3.54H3.54A3.55,3.55,0,0,1,0,32.579V3.54A3.55,3.55,0,0,1,3.54,0H26.089a3.55,3.55,0,0,1,3.54,3.54Z" transform="translate(2 2)"/>
    <path id="패스_13092" data-name="패스 13092" class="cls-4" d="M29.629,32.579a3.55,3.55,0,0,1-3.54,3.54H3.54A3.55,3.55,0,0,1,0,32.579V3.54A3.55,3.55,0,0,1,3.54,0H26.089a3.55,3.55,0,0,1,3.54,3.54Z"/>
    <g id="그룹_12577" data-name="그룹 12577" transform="translate(-2 1)">
      <path id="패스_13094" data-name="패스 13094" class="cls-5" d="M13.385,13.262h14.7a.885.885,0,1,0,0-1.77h-14.7a.885.885,0,1,0,0,1.77" transform="translate(-5.125 -4.492)"/>
      <path id="패스_13095" data-name="패스 13095" class="cls-6" d="M13.385,13.262h10.7a.885.885,0,1,0,0-1.77h-10.7a.885.885,0,1,0,0,1.77" transform="translate(-5.125 1.508)"/>
      <path id="패스_13098" data-name="패스 13098" class="cls-6" d="M13.385,13.262h5.7a.885.885,0,1,0,0-1.77h-5.7a.885.885,0,1,0,0,1.77" transform="translate(-5.125 13.508)"/>
      <path id="패스_13096" data-name="패스 13096" class="cls-5" d="M13.385,13.262h15.7a.885.885,0,1,0,0-1.77h-15.7a.885.885,0,1,0,0,1.77" transform="translate(-5.125 7.508)"/>
    </g>
    <g id="_62437dea15be6e933640f19f07f3e140" data-name="62437dea15be6e933640f19f07f3e140" transform="translate(15.645 21.57)">
      <path id="패스_13099" data-name="패스 13099" class="cls-7" d="M10.008,15.441a.917.917,0,0,1-.651-.27L6.77,12.583a.92.92,0,1,1,1.3-1.3l1.937,1.938L15.05,8.178a.92.92,0,0,1,1.3,1.3l-5.693,5.693a.917.917,0,0,1-.65.27Z" transform="translate(-0.36 -0.474)"/>
      <path id="패스_13100" data-name="패스 13100" class="cls-5" d="M11.2,2a9.2,9.2,0,1,0,9.2,9.2A9.2,9.2,0,0,0,11.2,2Zm4.79,7L10.3,14.7a.92.92,0,0,1-1.3,0L6.41,12.109a.92.92,0,1,1,1.3-1.3l1.937,1.938L14.69,7.7A.92.92,0,0,1,15.99,9Z"/>
    </g>
  </g>
</svg>
