<svg xmlns="http://www.w3.org/2000/svg" xmlns:xlink="http://www.w3.org/1999/xlink" width="60" height="50" viewBox="0 0 60 50">
  <defs>
    <style>
      .cls-1 {
        fill: none;
      }

      .cls-2 {
        clip-path: url(#clip-path);
      }

      .cls-3 {
        fill: #ffce4b;
      }

      .cls-4, .cls-5 {
        fill: #f9b32f;
      }

      .cls-5, .cls-6, .cls-7, .cls-8, .cls-9 {
        fill-rule: evenodd;
      }

      .cls-6 {
        fill: #109bb2;
      }

      .cls-7 {
        fill: #d0d0d0;
      }

      .cls-8 {
        fill: #0fa9cb;
      }

      .cls-9 {
        fill: #f0f0f0;
      }
    </style>
    <clipPath id="clip-path">
      <rect id="사각형_3376" data-name="사각형 3376" class="cls-1" width="60" height="50"/>
    </clipPath>
  </defs>
  <g id="crown" class="cls-2">
    <path id="패스_13136" data-name="패스 13136" class="cls-3" d="M89.281,144.084a17.238,17.238,0,1,1-17.238,17.238,17.238,17.238,0,0,1,17.238-17.238" transform="translate(-59.114 -129.227)"/>
    <path id="패스_13137" data-name="패스 13137" class="cls-4" d="M108.985,168.1a12.929,12.929,0,1,1-12.928,12.928A12.928,12.928,0,0,1,108.985,168.1" transform="translate(-78.819 -148.932)"/>
    <path id="패스_13138" data-name="패스 13138" class="cls-5" d="M121.913,122.225a2.155,2.155,0,0,0-2.155-2.155H98.211a2.155,2.155,0,1,0,0,4.309h21.548a2.155,2.155,0,0,0,2.155-2.155" transform="translate(-78.818 -109.523)"/>
    <path id="패스_13139" data-name="패스 13139" class="cls-6" d="M17.238,0H0L21.548,21.547H38.786Z" transform="translate(0 -11)"/>
    <path id="패스_13140" data-name="패스 13140" class="cls-7" d="M36.482,0H30.018L51.565,21.547h6.464Z" transform="translate(-24.631 -11)"/>
    <path id="패스_13141" data-name="패스 13141" class="cls-8" d="M141.618,0h17.238L137.309,21.547H120.071Z" transform="translate(-98.523 -11)"/>
    <path id="패스_13142" data-name="패스 13142" class="cls-9" d="M171.636,0H178.1L156.553,21.547h-6.464Z" transform="translate(-123.154 -11)"/>
    <path id="패스_13143" data-name="패스 13143" class="cls-3" d="M135.793,211.382a1.508,1.508,0,0,0-1.46,1.554v0a1.464,1.464,0,0,0,.57,1.112c-1.724,2.308-3.475,2.488-5.505-1.334a1.526,1.526,0,0,0,.6-2.2,1.361,1.361,0,0,0-1.279-.639h-.056a1.4,1.4,0,0,0-1.279.639,1.526,1.526,0,0,0,.6,2.2c-2.03,3.823-3.781,3.642-5.505,1.334a1.487,1.487,0,0,0,.57-1.112,1.517,1.517,0,0,0-1.46-1.557,1.5,1.5,0,1,0-.028,3,.794.794,0,0,0,.181-.014l.57,5.588a.862.862,0,0,0,.862.779h11.038a.862.862,0,0,0,.862-.779l.57-5.588a.735.735,0,0,0,.181.014,1.5,1.5,0,1,0-.028-3" transform="translate(-98.523 -183.212)"/>
  </g>
</svg>
