<svg id="bt_print" xmlns="http://www.w3.org/2000/svg" xmlns:xlink="http://www.w3.org/1999/xlink" width="36" height="36" viewBox="0 0 36 36">
  <defs>
    <style>
      .cls-1 {
        fill: none;
      }

      .cls-2, .cls-8 {
        fill: #fff;
      }

      .cls-2 {
        stroke: #0fa9cb;
      }

      .cls-3 {
        clip-path: url(#clip-path);
      }

      .cls-4 {
        fill: #eaedef;
      }

      .cls-5 {
        fill: #b1b7bb;
      }

      .cls-6 {
        fill: #0fa9cb;
      }

      .cls-7 {
        fill: #11819a;
      }

      .cls-9 {
        fill: #fff01a;
      }

      .cls-10 {
        stroke: none;
      }
    </style>
    <clipPath id="clip-path">
      <rect id="사각형_3234" data-name="사각형 3234" class="cls-1" width="26.571" height="26.57"/>
    </clipPath>
  </defs>
  <g id="사각형_3233" data-name="사각형 3233" class="cls-2">
    <rect class="cls-10" width="36" height="36" rx="2"/>
    <rect class="cls-1" x="0.5" y="0.5" width="35" height="35" rx="1.5"/>
  </g>
  <g id="그룹_12120" data-name="그룹 12120" transform="translate(5 5)">
    <g id="그룹_12119" data-name="그룹 12119" class="cls-3" transform="translate(0 0.001)">
      <path id="패스_13008" data-name="패스 13008" class="cls-4" d="M6.729,9.8A1.794,1.794,0,0,1,4.937,8.016V2.292A1.791,1.791,0,0,1,6.727.5H21.2A1.793,1.793,0,0,1,22.99,2.286v5.72A1.79,1.79,0,0,1,21.2,9.8Z" transform="translate(-0.806 -0.082)"/>
      <path id="패스_13009" data-name="패스 13009" class="cls-5" d="M21.117,0V.837A1.376,1.376,0,0,1,22.49,2.211V7.927A1.375,1.375,0,0,1,21.113,9.3H6.646A1.376,1.376,0,0,1,5.274,7.925V2.21A1.371,1.371,0,0,1,6.651.837H21.118ZM6.644,0A2.209,2.209,0,0,0,4.437,2.211V7.935a2.209,2.209,0,0,0,2.209,2.2H21.123a2.209,2.209,0,0,0,2.2-2.214V2.2A2.209,2.209,0,0,0,21.118,0H6.644" transform="translate(-0.724 0)"/>
      <path id="패스_13010" data-name="패스 13010" class="cls-6" d="M2.214,7.021H24.357a2.209,2.209,0,0,1,2.214,2.2V20.79A2.209,2.209,0,0,1,24.367,23H2.214A2.209,2.209,0,0,1,0,20.8V9.234A2.209,2.209,0,0,1,2.2,7.021h.009" transform="translate(0 -1.147)"/>
      <path id="패스_13011" data-name="패스 13011" class="cls-7" d="M7.117,15.875c-1.527,0-2.349,1.285-2.757,2.756L2.746,24.449H24.724L23.11,18.632c-.408-1.472-1.23-2.756-2.757-2.756Z" transform="translate(-0.448 -2.592)"/>
      <path id="패스_13012" data-name="패스 13012" class="cls-4" d="M6.6,29.305l-.1,0a1.319,1.319,0,0,1-1.268-1.684L7,21.239c.351-1.265.961-1.907,1.811-1.907H19.444c.849,0,1.459.642,1.812,1.907l1.771,6.383a1.321,1.321,0,0,1-.906,1.635,1.336,1.336,0,0,1-.363.052Z" transform="translate(-0.845 -3.156)"/>
      <path id="패스_13013" data-name="패스 13013" class="cls-5" d="M19.363,19.669c.639,0,1.113.539,1.407,1.6l1.774,6.389a.9.9,0,0,1-.619,1.115.927.927,0,0,1-.249.034h-.052l-.023,0H6.491l-.023,0H6.414a.9.9,0,0,1-.864-1.156l1.771-6.382c.295-1.062.768-1.6,1.414-1.6Zm0-.837H8.729c-1.227,0-1.886,1.033-2.214,2.214L4.744,27.428a1.738,1.738,0,0,0,1.67,2.217l.1,0H21.577l.1,0a1.738,1.738,0,0,0,1.672-2.217l-1.771-6.382c-.328-1.182-.987-2.214-2.214-2.214" transform="translate(-0.763 -3.075)"/>
      <path id="패스_13014" data-name="패스 13014" class="cls-8" d="M21.869,9.07a1.3,1.3,0,1,1-1.3,1.3,1.3,1.3,0,0,1,1.3-1.3" transform="translate(-3.357 -1.481)"/>
      <path id="패스_13015" data-name="패스 13015" class="cls-9" d="M27.3,9.07a1.3,1.3,0,1,1-1.3,1.3,1.3,1.3,0,0,1,1.3-1.3" transform="translate(-4.244 -1.481)"/>
    </g>
  </g>
</svg>
