<svg id="bt_pdf" xmlns="http://www.w3.org/2000/svg" xmlns:xlink="http://www.w3.org/1999/xlink" width="36" height="36" viewBox="0 0 36 36">
  <defs>
    <style>
      .cls-1 {
        fill: none;
      }

      .cls-2 {
        fill: #fff;
        stroke: #0fa9cb;
      }

      .cls-3 {
        clip-path: url(#clip-path);
      }

      .cls-4 {
        fill: #1f768a;
      }

      .cls-5 {
        fill: #eaedef;
      }

      .cls-5, .cls-7 {
        stroke: #b1b7bb;
        stroke-width: 0.4px;
      }

      .cls-6 {
        fill: #0f9fbf;
      }

      .cls-7 {
        fill: #ced5d9;
      }

      .cls-8 {
        fill: #f1f3f8;
      }

      .cls-9 {
        stroke: none;
      }
    </style>
    <clipPath id="clip-path">
      <rect id="사각형_3236" data-name="사각형 3236" class="cls-1" width="26" height="26" transform="translate(-0.25 -0.25)"/>
    </clipPath>
  </defs>
  <g id="사각형_3235" data-name="사각형 3235" class="cls-2">
    <rect class="cls-9" width="36" height="36" rx="2"/>
    <rect class="cls-1" x="0.5" y="0.5" width="35" height="35" rx="1.5"/>
  </g>
  <g id="그룹_12122" data-name="그룹 12122" transform="translate(7.693 5.375)">
    <g id="그룹_12121" data-name="그룹 12121" class="cls-3" transform="translate(-1.444 -1.125)">
      <path id="패스_13016" data-name="패스 13016" class="cls-4" d="M49.662,43.268A.406.406,0,0,0,49.28,43H44.406a.406.406,0,0,0-.406.406v4.061a.406.406,0,0,0,.666.312l4.874-4.061a.406.406,0,0,0,.122-.45" transform="translate(-25.158 -24.97)"/>
      <path id="패스_13017" data-name="패스 13017" class="cls-5" d="M8.123,9.341v8.123H18.277a.406.406,0,0,1,.406.406v4.265a2.234,2.234,0,0,1-2.234,2.234H2.234A2.234,2.234,0,0,1,0,22.135V6.092A.42.42,0,0,1,.118,5.8L5.8.118A.42.42,0,0,1,6.092,0H16.449a2.234,2.234,0,0,1,2.234,2.234v6.7a.406.406,0,0,1-.406.406Z" transform="translate(0.972 0.565)"/>
      <path id="패스_13018" data-name="패스 13018" class="cls-6" d="M19.754,21H33.84a.406.406,0,0,1,.406.406v8.935a.406.406,0,0,1-.406.406H19.754A1.754,1.754,0,0,1,18,28.993V22.754A1.754,1.754,0,0,1,19.754,21" transform="translate(-9.718 -11.905)"/>
      <path id="패스_13019" data-name="패스 13019" class="cls-7" d="M6.5,0V4.835A1.664,1.664,0,0,1,4.835,6.5H0V6.092A.42.42,0,0,1,.118,5.8L5.8.118A.42.42,0,0,1,6.092,0Z" transform="translate(0.972 0.565)"/>
      <path id="패스_13020" data-name="패스 13020" class="cls-8" d="M26.843,27H24.406a.406.406,0,0,0-.406.406v4.061a.406.406,0,0,0,.812,0V30.249h2.031a.406.406,0,0,0,.406-.406V27.406A.406.406,0,0,0,26.843,27m-.406,2.437H24.812V27.812h1.625ZM29.686,27H28.468a.406.406,0,0,0-.406.406v4.061a.406.406,0,0,0,.406.406h1.218a1.625,1.625,0,0,0,1.625-1.625V28.625A1.625,1.625,0,0,0,29.686,27m.812,3.249a.812.812,0,0,1-.812.812h-.812V27.812h.812a.812.812,0,0,1,.812.812ZM34.966,27H32.529a.406.406,0,0,0-.406.406v4.061a.406.406,0,1,0,.812,0V29.843H34.56a.406.406,0,1,0,0-.812H32.935V27.812h2.031a.406.406,0,1,0,0-.812" transform="translate(-13.281 -15.468)"/>
    </g>
  </g>
</svg>
