<svg width="37" height="46" viewBox="0 0 37 46" fill="none" xmlns="http://www.w3.org/2000/svg">
<g id="Clip path group">
<mask id="mask0_1_130" style="mask-type:luminance" maskUnits="userSpaceOnUse" x="0" y="0" width="37" height="46">
<g id="clip-path-4">
<path id="&#236;&#130;&#172;&#234;&#176;&#129;&#237;&#152;&#149; 3375" d="M37 0H0V45.208H37V0Z" fill="white"/>
</g>
</mask>
<g mask="url(#mask0_1_130)">
<g id="&#234;&#183;&#184;&#235;&#163;&#185; 12630">
<path id="&#237;&#140;&#168;&#236;&#138;&#164; 13123" d="M27.16 41.566H5.589C4.34672 41.566 3.15533 41.0725 2.27691 40.1941C1.39849 39.3157 0.904999 38.1243 0.904999 36.882V5.58903C0.904999 4.34676 1.39849 3.15536 2.27691 2.27694C3.15533 1.39852 4.34672 0.905029 5.589 0.905029H27.16C28.4023 0.905029 29.5937 1.39852 30.4721 2.27694C31.3505 3.15536 31.844 4.34676 31.844 5.58903V36.882C31.844 38.1243 31.3505 39.3157 30.4721 40.1941C29.5937 41.0725 28.4023 41.566 27.16 41.566Z" fill="#D8E4E5"/>
<path id="&#237;&#140;&#168;&#236;&#138;&#164; 13124" d="M26.255 40.661H4.684C4.06889 40.661 3.4598 40.5398 2.89151 40.3045C2.32322 40.0691 1.80686 39.724 1.37191 39.2891C0.936962 38.8541 0.591941 38.3378 0.356548 37.7695C0.121155 37.2012 0 36.5921 0 35.977L0 4.684C0 3.44173 0.493491 2.25033 1.37191 1.37191C2.25033 0.493491 3.44173 0 4.684 0L26.255 0C27.4973 0 28.6887 0.493491 29.5671 1.37191C30.4455 2.25033 30.939 3.44173 30.939 4.684V35.977C30.939 37.2193 30.4455 38.4107 29.5671 39.2891C28.6887 40.1675 27.4973 40.661 26.255 40.661Z" fill="#EAF3F9"/>
<path id="&#237;&#140;&#168;&#236;&#138;&#164; 13125" d="M35.689 27.489L33.289 25.089C32.9704 24.7714 32.5388 24.5931 32.089 24.5931C31.6391 24.5931 31.2076 24.7714 30.889 25.089L26.971 29.007L26.963 29.016L18.277 37.701H18.271C17.8832 38.2289 17.5827 38.8158 17.381 39.439C17.094 40.139 16.645 41.739 16.286 42.976C16.149 43.234 15.486 44.532 15.87 44.912C16.254 45.292 17.616 44.602 17.826 44.491C19.057 44.132 20.65 43.691 21.343 43.402C21.9666 43.2004 22.5538 42.9 23.082 42.512C23.096 42.497 23.108 42.481 23.121 42.466L33.449 32.14L33.742 31.847L33.758 31.831L34.049 31.54L35.696 29.893C36.0135 29.5743 36.1918 29.1428 36.1918 28.693C36.1918 28.2431 36.0135 27.8116 35.696 27.493" fill="#D8E4E5"/>
<path id="&#237;&#140;&#168;&#236;&#138;&#164; 13126" d="M16.847 43.983C16.783 44.19 17.58 44.983 17.786 44.922C18.998 44.547 21.281 43.939 22.149 43.581C22.7726 43.3795 23.3598 43.079 23.888 42.691C24.0438 42.5213 24.1272 42.2976 24.1207 42.0674C24.1142 41.8372 24.0181 41.6186 23.853 41.458C22.9038 40.0673 21.7036 38.8658 20.314 37.915C20.1531 37.7494 19.9338 37.6531 19.7029 37.6468C19.472 37.6404 19.2478 37.7245 19.078 37.881C18.6901 38.4089 18.3896 38.9957 18.188 39.619C17.83 40.488 17.221 42.771 16.847 43.982" fill="#FFF3D2"/>
<path id="&#237;&#140;&#168;&#236;&#138;&#164; 13127" d="M31.696 25.265C32.0147 24.9475 32.4461 24.7692 32.896 24.7692C33.3458 24.7692 33.7774 24.9475 34.096 25.265L36.496 27.665C36.8135 27.9836 36.9919 28.4152 36.9919 28.865C36.9919 29.3149 36.8135 29.7464 36.496 30.065L32.585 33.989C32.2664 34.3066 31.8349 34.4849 31.385 34.4849C30.9352 34.4849 30.5036 34.3066 30.185 33.989L27.785 31.589C27.4675 31.2704 27.2892 30.8389 27.2892 30.389C27.2892 29.9392 27.4675 29.5077 27.785 29.189L31.696 25.265Z" fill="#F46257"/>
<path id="&#237;&#140;&#168;&#236;&#138;&#164; 13128" d="M29.757 27.205L34.564 32.01L23.884 42.688L21.484 40.288L19.079 37.888L29.757 27.205Z" fill="#F1B02E"/>
<path id="&#237;&#140;&#168;&#236;&#138;&#164; 13129" d="M18.662 44.655C18.189 44.193 17.487 43.524 17.119 43.11C17.119 43.11 16.257 44.669 16.678 45.091C17.099 45.513 18.662 44.655 18.662 44.655Z" fill="#888888"/>
<path id="&#236;&#130;&#172;&#234;&#176;&#129;&#237;&#152;&#149; 3374" d="M30.0485 26.9125L29.449 27.512L34.2545 32.3175L34.854 31.718L30.0485 26.9125Z" fill="#FFD488"/>
<path id="&#237;&#140;&#168;&#236;&#138;&#164; 13130" d="M24.091 35.513C24.0373 35.5131 23.9847 35.4973 23.94 35.4676C23.8953 35.4378 23.8605 35.3954 23.8399 35.3458C23.8193 35.2962 23.814 35.2416 23.8245 35.1889C23.835 35.1363 23.8609 35.0879 23.899 35.05L28.999 29.95C29.0499 29.8991 29.119 29.8705 29.191 29.8705C29.263 29.8705 29.3321 29.8991 29.383 29.95C29.4339 30.0009 29.4625 30.07 29.4625 30.142C29.4625 30.214 29.4339 30.2831 29.383 30.334L24.283 35.434C24.2579 35.4594 24.228 35.4795 24.195 35.4932C24.1621 35.507 24.1267 35.514 24.091 35.514" fill="#FFD488"/>
<path id="&#237;&#140;&#168;&#236;&#138;&#164; 13131" d="M27.455 34.392C27.4013 34.3921 27.3487 34.3763 27.304 34.3466C27.2593 34.3168 27.2245 34.2744 27.2039 34.2248C27.1833 34.1752 27.178 34.1206 27.1885 34.0679C27.199 34.0153 27.2249 33.9669 27.263 33.929L29.776 31.416C29.8012 31.3908 29.8311 31.3708 29.8641 31.3571C29.897 31.3435 29.9323 31.3365 29.968 31.3365C30.0036 31.3365 30.039 31.3435 30.0719 31.3571C30.1048 31.3708 30.1348 31.3908 30.16 31.416C30.1852 31.4412 30.2052 31.4711 30.2188 31.5041C30.2325 31.537 30.2395 31.5723 30.2395 31.608C30.2395 31.6437 30.2325 31.679 30.2188 31.7119C30.2052 31.7449 30.1852 31.7748 30.16 31.8L27.647 34.313C27.6218 34.3383 27.5919 34.3584 27.559 34.3722C27.526 34.3859 27.4907 34.393 27.455 34.393" fill="#FFD488"/>
<path id="&#237;&#140;&#168;&#236;&#138;&#164; 13132" d="M24.402 10.901H6.536C6.43872 10.9046 6.34171 10.8886 6.25078 10.8538C6.15984 10.8191 6.07685 10.7664 6.00675 10.6989C5.93665 10.6313 5.8809 10.5503 5.84281 10.4608C5.80473 10.3712 5.7851 10.2748 5.7851 10.1775C5.7851 10.0802 5.80473 9.9838 5.84281 9.89422C5.8809 9.80464 5.93665 9.72366 6.00675 9.65612C6.07685 9.58858 6.15984 9.53587 6.25078 9.50114C6.34171 9.46641 6.43872 9.45037 6.536 9.45399H24.402C24.5892 9.46095 24.7665 9.54022 24.8965 9.67514C25.0265 9.81007 25.0991 9.99014 25.0991 10.1775C25.0991 10.3649 25.0265 10.5449 24.8965 10.6798C24.7665 10.8148 24.5892 10.894 24.402 10.901Z" fill="#1183C9"/>
<path id="&#237;&#140;&#168;&#236;&#138;&#164; 13133" d="M24.402 17.669H6.536C6.43872 17.6726 6.34171 17.6566 6.25078 17.6219C6.15984 17.5871 6.07685 17.5344 6.00675 17.4669C5.93665 17.3993 5.8809 17.3184 5.84281 17.2288C5.80473 17.1392 5.7851 17.0428 5.7851 16.9455C5.7851 16.8482 5.80473 16.7518 5.84281 16.6622C5.8809 16.5726 5.93665 16.4917 6.00675 16.4241C6.07685 16.3566 6.15984 16.3039 6.25078 16.2691C6.34171 16.2344 6.43872 16.2184 6.536 16.222H24.402C24.5892 16.229 24.7665 16.3082 24.8965 16.4432C25.0265 16.5781 25.0991 16.7581 25.0991 16.9455C25.0991 17.1329 25.0265 17.3129 24.8965 17.4478C24.7665 17.5828 24.5892 17.662 24.402 17.669Z" fill="#1183C9"/>
<path id="&#237;&#140;&#168;&#236;&#138;&#164; 13134" d="M24.402 24.438H6.536C6.43872 24.4416 6.34171 24.4255 6.25078 24.3908C6.15984 24.3561 6.07685 24.3034 6.00675 24.2359C5.93665 24.1683 5.8809 24.0873 5.84281 23.9977C5.80473 23.9082 5.7851 23.8118 5.7851 23.7145C5.7851 23.6171 5.80473 23.5208 5.84281 23.4312C5.8809 23.3416 5.93665 23.2607 6.00675 23.1931C6.07685 23.1256 6.15984 23.0729 6.25078 23.0381C6.34171 23.0034 6.43872 22.9874 6.536 22.991H24.402C24.5892 22.9979 24.7665 23.0772 24.8965 23.2121C25.0265 23.347 25.0991 23.5271 25.0991 23.7145C25.0991 23.9018 25.0265 24.0819 24.8965 24.2168C24.7665 24.3517 24.5892 24.431 24.402 24.438Z" fill="#1183C9"/>
<path id="&#237;&#140;&#168;&#236;&#138;&#164; 13135" d="M19.734 31.207H6.53401C6.43674 31.2107 6.33973 31.1946 6.24879 31.1599C6.15786 31.1252 6.07487 31.0724 6.00477 31.0049C5.93467 30.9374 5.87891 30.8564 5.84082 30.7668C5.80274 30.6772 5.78311 30.5809 5.78311 30.4835C5.78311 30.3862 5.80274 30.2899 5.84082 30.2003C5.87891 30.1107 5.93467 30.0297 6.00477 29.9622C6.07487 29.8946 6.15786 29.8419 6.24879 29.8072C6.33973 29.7724 6.43674 29.7564 6.53401 29.76H19.734C19.8313 29.7564 19.9283 29.7724 20.0192 29.8072C20.1102 29.8419 20.1932 29.8946 20.2633 29.9622C20.3334 30.0297 20.3891 30.1107 20.4272 30.2003C20.4653 30.2899 20.4849 30.3862 20.4849 30.4835C20.4849 30.5809 20.4653 30.6772 20.4272 30.7668C20.3891 30.8564 20.3334 30.9374 20.2633 31.0049C20.1932 31.0724 20.1102 31.1252 20.0192 31.1599C19.9283 31.1946 19.8313 31.2107 19.734 31.207Z" fill="#1183C9"/>
</g>
</g>
</g>
</svg>
