<svg id="bt_report" xmlns="http://www.w3.org/2000/svg" xmlns:xlink="http://www.w3.org/1999/xlink" width="38" height="44" viewBox="0 0 38 44">
  <defs>
    <style>
      .cls-1 {
        fill: none;
      }

      .cls-2 {
        clip-path: url(#clip-path);
      }

      .cls-3 {
        fill: #cdd4d9;
      }

      .cls-4 {
        fill: #eaedef;
        stroke: #b1b7bb;
        stroke-width: 0.4px;
      }

      .cls-5 {
        fill: #0fa9cb;
      }

      .cls-6 {
        fill: #fff01a;
      }

      .cls-7 {
        fill: #11819a;
      }
    </style>
    <clipPath id="clip-path">
      <rect id="사각형_3211" data-name="사각형 3211" class="cls-1" width="38" height="44" transform="translate(-1 -1)"/>
    </clipPath>
  </defs>
  <g id="그룹_12074" data-name="그룹 12074" class="cls-2" transform="translate(1 1)">
    <path id="패스_12985" data-name="패스 12985" class="cls-3" d="M33.629,36.579a3.55,3.55,0,0,1-3.54,3.54H3.54A3.55,3.55,0,0,1,0,36.579V3.54A3.55,3.55,0,0,1,3.54,0H30.089a3.55,3.55,0,0,1,3.54,3.54Z" transform="translate(2 2)"/>
    <path id="패스_12980" data-name="패스 12980" class="cls-4" d="M33.629,36.579a3.55,3.55,0,0,1-3.54,3.54H3.54A3.55,3.55,0,0,1,0,36.579V3.54A3.55,3.55,0,0,1,3.54,0H30.089a3.55,3.55,0,0,1,3.54,3.54Z"/>
    <path id="패스_12981" data-name="패스 12981" class="cls-5" d="M13.385,19.162h17.7a.885.885,0,1,0,0-1.77h-17.7a.885.885,0,1,0,0,1.77m0-5.9h17.7a.885.885,0,1,0,0-1.77h-17.7a.885.885,0,1,0,0,1.77m0,11.8h17.7a.885.885,0,1,0,0-1.77h-17.7a.885.885,0,1,0,0,1.77" transform="translate(-5.125 -4.712)"/>
    <path id="패스_12982" data-name="패스 12982" class="cls-5" d="M20.682,47.458a4.447,4.447,0,1,0-3.218,3.217l-1.071-4.289Z" transform="translate(-4.889 -17.186)"/>
    <path id="패스_12983" data-name="패스 12983" class="cls-6" d="M23.789,50.565,19.5,49.493l1.071,4.289a4.427,4.427,0,0,0,3.217-3.217" transform="translate(-7.995 -20.293)"/>
    <path id="패스_12984" data-name="패스 12984" class="cls-7" d="M36.45,46.918v3.54a.885.885,0,1,0,1.77,0v-3.54a.885.885,0,0,0-1.77,0m-2.95-3.54v7.08a.885.885,0,1,0,1.77,0v-7.08a.885.885,0,1,0-1.77,0m5.9,1.77v5.31a.885.885,0,1,0,1.77,0v-5.31a.885.885,0,1,0-1.77,0" transform="translate(-13.735 -17.423)"/>
  </g>
</svg>
